<svg width="15" height="20" fill="none" xmlns="http://www.w3.org/2000/svg"><path d="M12.712 3.236h-6.86v3.976a6.524 6.524 0 012.8-.616c1.045 0 1.979.243 2.8.728.821.485 1.465 1.195 1.932 2.128.467.933.7 2.035.7 3.304 0 1.325-.308 2.501-.924 3.528-.597 1.008-1.465 1.792-2.604 2.352-1.12.56-2.417.84-3.892.84-2.557 0-4.657-.952-6.3-2.856l2.464-2.296c1.027 1.213 2.25 1.82 3.668 1.82.97 0 1.717-.29 2.24-.868.541-.579.812-1.41.812-2.492 0-2.11-.887-3.164-2.66-3.164-.373 0-.737.056-1.092.168a5.05 5.05 0 00-1.176.504H1.624V.072h11.592l-.504 3.164z" fill="url(#paint0_linear)"/><defs><linearGradient id="paint0_linear" x1="3.421" y1="-12.629" x2="11.422" y2="-11.907" gradientUnits="userSpaceOnUse"><stop stop-color="#FFC341"/><stop offset=".964" stop-color="#FFD701"/></linearGradient></defs></svg>