<svg width="14" height="20" fill="none" xmlns="http://www.w3.org/2000/svg"><path d="M6.664.68c1.363 0 2.53.243 3.5.728.99.485 1.736 1.139 2.24 1.96.523.821.784 1.727.784 2.716 0 1.008-.205 1.97-.616 2.884-.41.915-1.139 1.97-2.184 3.164-1.045 1.176-2.567 2.67-4.564 4.48h7.756L13.132 20H.812v-3.136c2.296-2.259 3.967-3.957 5.012-5.096 1.045-1.157 1.773-2.119 2.184-2.884.43-.765.644-1.55.644-2.352 0-.765-.224-1.363-.672-1.792-.43-.448-1.017-.672-1.764-.672-.672 0-1.27.159-1.792.476-.523.299-1.073.793-1.652 1.484L.168 3.956a8.606 8.606 0 012.8-2.408C4.069.969 5.301.68 6.664.68z" fill="url(#paint0_linear)"/><defs><linearGradient id="paint0_linear" x1="3.421" y1="-11.629" x2="11.422" y2="-10.907" gradientUnits="userSpaceOnUse"><stop stop-color="#FFC341"/><stop offset=".964" stop-color="#FFD701"/></linearGradient></defs></svg>