<svg width="15" height="21" fill="none" xmlns="http://www.w3.org/2000/svg"><path d="M8.66 7.26c1.045 0 1.979.252 2.8.756.821.485 1.465 1.204 1.932 2.156.467.933.7 2.053.7 3.36 0 1.288-.28 2.464-.84 3.528a6.305 6.305 0 01-2.408 2.492c-1.027.616-2.23.924-3.612.924-2.427 0-4.228-.812-5.404-2.436C.652 16.416.064 14.185.064 11.348c0-2.128.327-3.995.98-5.6.672-1.605 1.624-2.847 2.856-3.724C5.15 1.128 6.616.68 8.296.68c1.624 0 3.061.42 4.312 1.26l-1.624 2.632c-.84-.485-1.699-.728-2.576-.728-1.064 0-1.923.448-2.576 1.344-.653.896-1.045 2.165-1.176 3.808C5.795 7.839 7.129 7.26 8.66 7.26zM7.288 17.312c.784 0 1.372-.327 1.764-.98.41-.672.616-1.587.616-2.744 0-1.176-.187-2.016-.56-2.52-.373-.504-.933-.756-1.68-.756-1.008 0-1.932.495-2.772 1.484.037 1.997.252 3.416.644 4.256.392.84 1.055 1.26 1.988 1.26z" fill="url(#paint0_linear)"/><defs><linearGradient id="paint0_linear" x1="2.421" y1="-11.629" x2="10.422" y2="-10.907" gradientUnits="userSpaceOnUse"><stop stop-color="#FFC341"/><stop offset=".964" stop-color="#FFD701"/></linearGradient></defs></svg>