<svg width="15" height="21" fill="none" xmlns="http://www.w3.org/2000/svg"><path d="M7.692.68c1.325 0 2.455.215 3.388.644.952.43 1.67 1.008 2.156 1.736.504.728.756 1.54.756 2.436 0 1.139-.327 2.09-.98 2.856-.635.765-1.54 1.316-2.716 1.652 1.27.13 2.305.588 3.108 1.372.803.765 1.204 1.857 1.204 3.276a5.44 5.44 0 01-.84 2.94c-.56.877-1.39 1.577-2.492 2.1-1.083.523-2.38.784-3.892.784-2.763 0-4.928-.952-6.496-2.856l2.38-2.324c.635.635 1.25 1.101 1.848 1.4.616.28 1.288.42 2.016.42.877 0 1.587-.243 2.128-.728.541-.485.812-1.157.812-2.016 0-.97-.261-1.661-.784-2.072-.504-.43-1.27-.644-2.296-.644H5.424L5.9 8.604h1.092c.84 0 1.503-.215 1.988-.644.485-.43.728-1.036.728-1.82 0-.69-.224-1.223-.672-1.596-.448-.392-1.064-.588-1.848-.588-1.325 0-2.557.55-3.696 1.652l-2.184-2.38C3.1 1.529 5.228.68 7.692.68z" fill="url(#paint0_linear)"/><defs><linearGradient id="paint0_linear" x1="4.421" y1="-11.629" x2="12.422" y2="-10.907" gradientUnits="userSpaceOnUse"><stop stop-color="#FFC341"/><stop offset=".964" stop-color="#FFD701"/></linearGradient></defs></svg>