<svg xmlns="http://www.w3.org/2000/svg" xmlns:xlink="http://www.w3.org/1999/xlink"><defs><linearGradient id="paint0_linear" x1="3.421" y1="-12.629" x2="11.422" y2="-11.907" gradientUnits="userSpaceOnUse"><stop stop-color="#FFC341"/><stop offset=".964" stop-color="#FFD701"/></linearGradient><linearGradient id="paint0_linear" x1="3.421" y1="-11.629" x2="11.422" y2="-10.907" gradientUnits="userSpaceOnUse"><stop stop-color="#FFC341"/><stop offset=".964" stop-color="#FFD701"/></linearGradient><linearGradient id="paint0_linear" x1="4.421" y1="-11.629" x2="12.422" y2="-10.907" gradientUnits="userSpaceOnUse"><stop stop-color="#FFC341"/><stop offset=".964" stop-color="#FFD701"/></linearGradient><linearGradient id="paint0_linear" x1="3.421" y1="-11.629" x2="11.422" y2="-10.907" gradientUnits="userSpaceOnUse"><stop stop-color="#FFC341"/><stop offset=".964" stop-color="#FFD701"/></linearGradient><linearGradient id="paint0_linear" x1="3.421" y1="-12.629" x2="11.422" y2="-11.907" gradientUnits="userSpaceOnUse"><stop stop-color="#FFC341"/><stop offset=".964" stop-color="#FFD701"/></linearGradient><linearGradient id="paint0_linear" x1="2.421" y1="-11.629" x2="10.422" y2="-10.907" gradientUnits="userSpaceOnUse"><stop stop-color="#FFC341"/><stop offset=".964" stop-color="#FFD701"/></linearGradient><linearGradient id="paint0_linear" x1="16.842" y1="1.829" x2="52.588" y2="13.732" gradientUnits="userSpaceOnUse"><stop stop-color="#FFC341"/><stop offset=".964" stop-color="#FFD701"/></linearGradient><linearGradient id="paint1_linear" x1="30.632" y1="8.029" x2="55.51" y2="19.074" gradientUnits="userSpaceOnUse"><stop stop-color="#FFC341"/><stop offset=".964" stop-color="#FFD701"/></linearGradient></defs><symbol id="icon-1"><path d="M10.696.072V19h-4.34V4.384l-4.06 2.492-1.932-2.94L6.748.072h3.948z" fill="url(#paint0_linear)"/></symbol><symbol id="icon-2"><path d="M6.664.68c1.363 0 2.53.243 3.5.728.99.485 1.736 1.139 2.24 1.96.523.821.784 1.727.784 2.716 0 1.008-.205 1.97-.616 2.884-.41.915-1.139 1.97-2.184 3.164-1.045 1.176-2.567 2.67-4.564 4.48h7.756L13.132 20H.812v-3.136c2.296-2.259 3.967-3.957 5.012-5.096 1.045-1.157 1.773-2.119 2.184-2.884.43-.765.644-1.55.644-2.352 0-.765-.224-1.363-.672-1.792-.43-.448-1.017-.672-1.764-.672-.672 0-1.27.159-1.792.476-.523.299-1.073.793-1.652 1.484L.168 3.956a8.606 8.606 0 012.8-2.408C4.069.969 5.301.68 6.664.68z" fill="url(#paint0_linear)"/></symbol><symbol id="icon-3"><path d="M7.692.68c1.325 0 2.455.215 3.388.644.952.43 1.67 1.008 2.156 1.736.504.728.756 1.54.756 2.436 0 1.139-.327 2.09-.98 2.856-.635.765-1.54 1.316-2.716 1.652 1.27.13 2.305.588 3.108 1.372.803.765 1.204 1.857 1.204 3.276a5.44 5.44 0 01-.84 2.94c-.56.877-1.39 1.577-2.492 2.1-1.083.523-2.38.784-3.892.784-2.763 0-4.928-.952-6.496-2.856l2.38-2.324c.635.635 1.25 1.101 1.848 1.4.616.28 1.288.42 2.016.42.877 0 1.587-.243 2.128-.728.541-.485.812-1.157.812-2.016 0-.97-.261-1.661-.784-2.072-.504-.43-1.27-.644-2.296-.644H5.424L5.9 8.604h1.092c.84 0 1.503-.215 1.988-.644.485-.43.728-1.036.728-1.82 0-.69-.224-1.223-.672-1.596-.448-.392-1.064-.588-1.848-.588-1.325 0-2.557.55-3.696 1.652l-2.184-2.38C3.1 1.529 5.228.68 7.692.68z" fill="url(#paint0_linear)"/></symbol><symbol id="icon-4"><path d="M15.232 12.608v3.304h-2.128V20H8.792l-.028-4.088H.784v-2.94L6.16.596l3.752 1.4-4.564 10.612H8.82l.476-4.48h3.808v4.48h2.128z" fill="url(#paint0_linear)"/></symbol><symbol id="icon-5"><path d="M12.712 3.236h-6.86v3.976a6.524 6.524 0 012.8-.616c1.045 0 1.979.243 2.8.728.821.485 1.465 1.195 1.932 2.128.467.933.7 2.035.7 3.304 0 1.325-.308 2.501-.924 3.528-.597 1.008-1.465 1.792-2.604 2.352-1.12.56-2.417.84-3.892.84-2.557 0-4.657-.952-6.3-2.856l2.464-2.296c1.027 1.213 2.25 1.82 3.668 1.82.97 0 1.717-.29 2.24-.868.541-.579.812-1.41.812-2.492 0-2.11-.887-3.164-2.66-3.164-.373 0-.737.056-1.092.168a5.05 5.05 0 00-1.176.504H1.624V.072h11.592l-.504 3.164z" fill="url(#paint0_linear)"/></symbol><symbol id="icon-6"><path d="M8.66 7.26c1.045 0 1.979.252 2.8.756.821.485 1.465 1.204 1.932 2.156.467.933.7 2.053.7 3.36 0 1.288-.28 2.464-.84 3.528a6.305 6.305 0 01-2.408 2.492c-1.027.616-2.23.924-3.612.924-2.427 0-4.228-.812-5.404-2.436C.652 16.416.064 14.185.064 11.348c0-2.128.327-3.995.98-5.6.672-1.605 1.624-2.847 2.856-3.724C5.15 1.128 6.616.68 8.296.68c1.624 0 3.061.42 4.312 1.26l-1.624 2.632c-.84-.485-1.699-.728-2.576-.728-1.064 0-1.923.448-2.576 1.344-.653.896-1.045 2.165-1.176 3.808C5.795 7.839 7.129 7.26 8.66 7.26zM7.288 17.312c.784 0 1.372-.327 1.764-.98.41-.672.616-1.587.616-2.744 0-1.176-.187-2.016-.56-2.52-.373-.504-.933-.756-1.68-.756-1.008 0-1.932.495-2.772 1.484.037 1.997.252 3.416.644 4.256.392.84 1.055 1.26 1.988 1.26z" fill="url(#paint0_linear)"/></symbol><symbol id="icon-fb"><path d="M15.538 5.187H17.4V1.943c-.321-.044-1.426-.143-2.713-.143-2.685 0-4.524 1.689-4.524 4.793V9.45H7.2v3.626h2.963V22.2h3.633v-9.123h2.843l.45-3.626h-3.294V6.953c0-1.049.283-1.766 1.743-1.766z" fill="#000"/></symbol><symbol id="icon-instagram"><path d="M12 8.4A3.604 3.604 0 008.4 12c0 1.985 1.615 3.6 3.6 3.6s3.6-1.615 3.6-3.6-1.615-3.6-3.6-3.6z" fill="#fff"/><path fill-rule="evenodd" clip-rule="evenodd" d="M2.4 17.61V6.39A3.99 3.99 0 016.39 2.4h11.22a3.99 3.99 0 013.99 3.99v11.22a3.99 3.99 0 01-3.99 3.99H6.39a3.99 3.99 0 01-3.99-3.99zm4.16-7.644a5.823 5.823 0 007.474 7.474 5.508 5.508 0 003.406-3.406A5.823 5.823 0 009.966 6.56 5.508 5.508 0 006.56 9.966zM18 6.6a1.2 1.2 0 100-2.4 1.2 1.2 0 000 2.4z" fill="#fff"/></symbol><symbol id="icon-ok"><rect x="3" y="3" width="58" height="58" rx="29" stroke="url(#paint0_linear)" stroke-width="6"/><path d="M18 27.88L32.197 43 66 7" stroke="url(#paint1_linear)" stroke-width="9" stroke-linecap="round" stroke-linejoin="round"/></symbol><symbol id="icon-telegram"><path d="M9.633 14.863l-.364 5.026c.52 0 .746-.22 1.016-.483l2.441-2.291 5.059 3.637c.927.508 1.581.24 1.831-.838l3.32-15.275h.001c.295-1.347-.495-1.874-1.4-1.543L2.022 10.432c-1.332.507-1.311 1.236-.226 1.566l4.99 1.524 11.59-7.12c.545-.354 1.04-.158.633.197l-9.375 8.264z" fill="#000" opacity=".16"/></symbol><symbol id="icon-twitter"><path d="M23.077 5.13a9.47 9.47 0 01-2.617.718 4.516 4.516 0 001.998-2.51 9.076 9.076 0 01-2.88 1.1 4.54 4.54 0 00-7.856 3.106c0 .359.03.705.105 1.035C8.05 8.394 4.71 6.585 2.466 3.828a4.573 4.573 0 00-.622 2.296c0 1.573.81 2.967 2.017 3.774a4.485 4.485 0 01-2.052-.56v.05a4.563 4.563 0 003.639 4.463c-.37.101-.773.15-1.19.15-.291 0-.585-.017-.86-.078.588 1.799 2.258 3.121 4.243 3.164a9.125 9.125 0 01-5.63 1.937c-.373 0-.73-.017-1.088-.062A12.787 12.787 0 007.89 21c8.358 0 12.927-6.923 12.927-12.924 0-.2-.007-.395-.017-.587a9.061 9.061 0 002.277-2.358z" fill="#000"/></symbol><symbol id="icon-whatsapp"><path d="M12.002 2h-.005C6.485 2 2 6.485 2 12c0 2.188.705 4.215 1.904 5.861l-1.246 3.715L6.5 20.347A9.913 9.913 0 0012.002 22C17.517 22 22 17.514 22 12S17.516 2 12.002 2zm5.82 14.121c-.242.681-1.2 1.247-1.963 1.412-.523.11-1.205.2-3.503-.753-2.938-1.218-4.831-4.204-4.978-4.398-.142-.193-1.188-1.58-1.188-3.016 0-1.435.729-2.133 1.022-2.433.242-.247.64-.36 1.023-.36.124 0 .235.007.335.012.294.013.441.03.635.494.241.581.829 2.016.899 2.163.071.148.142.348.042.542-.094.2-.176.288-.324.458-.147.17-.287.3-.434.483-.136.159-.288.329-.118.623.17.287.758 1.246 1.623 2.016 1.116.993 2.02 1.311 2.345 1.446.24.1.528.076.705-.111.223-.242.5-.642.78-1.035.2-.283.453-.318.718-.218.27.094 1.699.8 1.993.947.293.147.487.217.558.34.07.124.07.706-.17 1.388z" fill="#000" opacity=".16"/></symbol></svg>