<svg width="15" height="20" viewBox="0 0 15 20" fill="none" xmlns="http://www.w3.org/2000/svg">
<path d="M12.712 3.236H5.852V7.212C6.72933 6.80133 7.66267 6.596 8.652 6.596C9.69733 6.596 10.6307 6.83867 11.452 7.324C12.2733 7.80933 12.9173 8.51867 13.384 9.452C13.8507 10.3853 14.084 11.4867 14.084 12.756C14.084 14.0813 13.776 15.2573 13.16 16.284C12.5627 17.292 11.6947 18.076 10.556 18.636C9.436 19.196 8.13867 19.476 6.664 19.476C4.10667 19.476 2.00667 18.524 0.364 16.62L2.828 14.324C3.85467 15.5373 5.07733 16.144 6.496 16.144C7.46667 16.144 8.21333 15.8547 8.736 15.276C9.27733 14.6973 9.548 13.8667 9.548 12.784C9.548 10.6747 8.66133 9.62 6.888 9.62C6.51467 9.62 6.15067 9.676 5.796 9.788C5.44133 9.88133 5.04933 10.0493 4.62 10.292H1.624V0.0719984H13.216L12.712 3.236Z" fill="url(#paint0_linear)"/>
<defs>
<linearGradient id="paint0_linear" x1="3.42105" y1="-12.6286" x2="11.422" y2="-11.907" gradientUnits="userSpaceOnUse">
<stop stop-color="#FFC341"/>
<stop offset="0.963542" stop-color="#FFD701"/>
</linearGradient>
</defs>
</svg>
