<svg width="15" height="21" viewBox="0 0 15 21" fill="none" xmlns="http://www.w3.org/2000/svg">
<path d="M7.692 0.679998C9.01733 0.679998 10.1467 0.894665 11.08 1.324C12.032 1.75333 12.7507 2.332 13.236 3.06C13.74 3.788 13.992 4.6 13.992 5.496C13.992 6.63467 13.6653 7.58667 13.012 8.352C12.3773 9.11733 11.472 9.668 10.296 10.004C11.5653 10.1347 12.6013 10.592 13.404 11.376C14.2067 12.1413 14.608 13.2333 14.608 14.652C14.608 15.716 14.328 16.696 13.768 17.592C13.208 18.4693 12.3773 19.1693 11.276 19.692C10.1933 20.2147 8.896 20.476 7.384 20.476C4.62133 20.476 2.456 19.524 0.888 17.62L3.268 15.296C3.90267 15.9307 4.51867 16.3973 5.116 16.696C5.732 16.976 6.404 17.116 7.132 17.116C8.00933 17.116 8.71867 16.8733 9.26 16.388C9.80133 15.9027 10.072 15.2307 10.072 14.372C10.072 13.4013 9.81067 12.7107 9.288 12.3C8.784 11.8707 8.01867 11.656 6.992 11.656H5.424L5.9 8.604H6.992C7.832 8.604 8.49467 8.38933 8.98 7.96C9.46533 7.53067 9.708 6.924 9.708 6.14C9.708 5.44933 9.484 4.91733 9.036 4.544C8.588 4.152 7.972 3.956 7.188 3.956C5.86267 3.956 4.63067 4.50667 3.492 5.608L1.308 3.228C3.1 1.52933 5.228 0.679998 7.692 0.679998Z" fill="url(#paint0_linear)"/>
<defs>
<linearGradient id="paint0_linear" x1="4.42105" y1="-11.6286" x2="12.422" y2="-10.907" gradientUnits="userSpaceOnUse">
<stop stop-color="#FFC341"/>
<stop offset="0.963542" stop-color="#FFD701"/>
</linearGradient>
</defs>
</svg>
