<svg width="15" height="21" viewBox="0 0 15 21" fill="none" xmlns="http://www.w3.org/2000/svg">
<path d="M8.66 7.26C9.70533 7.26 10.6387 7.512 11.46 8.016C12.2813 8.50133 12.9253 9.22 13.392 10.172C13.8587 11.1053 14.092 12.2253 14.092 13.532C14.092 14.82 13.812 15.996 13.252 17.06C12.692 18.1053 11.8893 18.936 10.844 19.552C9.81733 20.168 8.61333 20.476 7.232 20.476C4.80533 20.476 3.004 19.664 1.828 18.04C0.652 16.416 0.0640001 14.1853 0.0640001 11.348C0.0640001 9.22 0.390667 7.35333 1.044 5.748C1.716 4.14267 2.668 2.90133 3.9 2.024C5.15067 1.128 6.616 0.679998 8.296 0.679998C9.92 0.679998 11.3573 1.1 12.608 1.94L10.984 4.572C10.144 4.08667 9.28533 3.844 8.408 3.844C7.344 3.844 6.48533 4.292 5.832 5.188C5.17867 6.084 4.78667 7.35333 4.656 8.996C5.79467 7.83867 7.12933 7.26 8.66 7.26ZM7.288 17.312C8.072 17.312 8.66 16.9853 9.052 16.332C9.46267 15.66 9.668 14.7453 9.668 13.588C9.668 12.412 9.48133 11.572 9.108 11.068C8.73467 10.564 8.17467 10.312 7.428 10.312C6.42 10.312 5.496 10.8067 4.656 11.796C4.69333 13.7933 4.908 15.212 5.3 16.052C5.692 16.892 6.35467 17.312 7.288 17.312Z" fill="url(#paint0_linear)"/>
<defs>
<linearGradient id="paint0_linear" x1="2.42105" y1="-11.6286" x2="10.422" y2="-10.907" gradientUnits="userSpaceOnUse">
<stop stop-color="#FFC341"/>
<stop offset="0.963542" stop-color="#FFD701"/>
</linearGradient>
</defs>
</svg>
