<svg width="14" height="20" viewBox="0 0 14 20" fill="none" xmlns="http://www.w3.org/2000/svg">
<path d="M6.664 0.679998C8.02667 0.679998 9.19333 0.922665 10.164 1.408C11.1533 1.89333 11.9 2.54667 12.404 3.368C12.9267 4.18933 13.188 5.09467 13.188 6.084C13.188 7.092 12.9827 8.05333 12.572 8.968C12.1613 9.88267 11.4333 10.9373 10.388 12.132C9.34267 13.308 7.82133 14.8013 5.824 16.612H13.58L13.132 20H0.812V16.864C3.108 14.6053 4.77867 12.9067 5.824 11.768C6.86933 10.6107 7.59733 9.64933 8.008 8.884C8.43733 8.11867 8.652 7.33467 8.652 6.532C8.652 5.76667 8.428 5.16933 7.98 4.74C7.55067 4.292 6.96267 4.068 6.216 4.068C5.544 4.068 4.94667 4.22667 4.424 4.544C3.90133 4.84267 3.35067 5.33733 2.772 6.028L0.168 3.956C0.952 2.92933 1.88533 2.12667 2.968 1.548C4.06933 0.969332 5.30133 0.679998 6.664 0.679998Z" fill="url(#paint0_linear)"/>
<defs>
<linearGradient id="paint0_linear" x1="3.42105" y1="-11.6286" x2="11.422" y2="-10.907" gradientUnits="userSpaceOnUse">
<stop stop-color="#FFC341"/>
<stop offset="0.963542" stop-color="#FFD701"/>
</linearGradient>
</defs>
</svg>
